<svg width="32" height="32" viewBox="0 0 32 32" fill="none" xmlns="http://www.w3.org/2000/svg">
<path d="M18.5 9C18.109 9 17.757 9.15299 17.489 9.39801L17.486 9.39399L11.486 14.894C11.177 15.179 11 15.579 11 16C11 16.421 11.177 16.821 11.486 17.106L17.486 22.606L17.489 22.602C17.757 22.8471 18.109 23 18.5 23C19.3281 23 20.0001 22.328 20.0001 21.5C20.0001 21.063 19.81 20.6719 19.511 20.398L19.514 20.394L14.72 16L19.514 11.605L19.511 11.601C19.81 11.328 20 10.938 20 10.5C20 9.672 19.328 9 18.5 9ZM16 0C7.16403 0 0 7.16403 0 16C0 24.836 7.16403 32 16 32C24.836 32 32 24.836 32 16C32 7.16403 24.836 0 16 0ZM16 29C8.832 29 3 23.168 3 16C3 8.832 8.832 3 16 3C23.168 3 29 8.832 29 16C29 23.168 23.168 29 16 29Z" fill="black"/>
</svg>
