<svg width="24" height="24" viewBox="0 0 24 24" fill="none" xmlns="http://www.w3.org/2000/svg">
<path d="M21.06 17.4023V5.85938C21.06 5.48391 20.7558 5.17969 20.3803 5.17969H3.61078C3.23555 5.17969 2.93109 5.48391 2.93109 5.85938V17.4023H0.246094V18.1641C0.33375 18.266 0.769922 18.581 1.97648 18.5548L21.7577 18.5468C21.7577 18.5468 23.3018 18.5691 23.8359 18.1641V17.4023H21.06ZM11.9955 5.67961C12.049 5.67961 12.0923 5.72297 12.0923 5.77641C12.0923 5.82984 12.049 5.87297 11.9955 5.87297C11.9421 5.87297 11.899 5.82984 11.899 5.77641C11.899 5.72297 11.9421 5.67961 11.9955 5.67961ZM3.92133 6.21094H20.0698V16.3828H3.92133V6.21094ZM13.7344 17.5488C13.7344 17.6653 13.6399 17.7598 13.5234 17.7598H10.3359C10.2195 17.7598 10.125 17.6653 10.125 17.5488V17.4141H13.7344V17.5488ZM22.4269 17.8066H21.6122C21.5977 17.8066 21.5859 17.7949 21.5859 17.7802C21.5859 17.7656 21.5977 17.7539 21.6122 17.7539H22.4269C22.4414 17.7539 22.4531 17.7656 22.4531 17.7802C22.4531 17.7949 22.4414 17.8066 22.4269 17.8066Z" fill="#0046FF"/>
</svg>
