<svg width="22" height="18" viewBox="0 0 22 18" fill="none" xmlns="http://www.w3.org/2000/svg">
<path d="M19.6399 0.630005H2.35992C1.78705 0.630005 1.23764 0.857575 0.832565 1.26265C0.427486 1.66773 0.199915 2.21714 0.199915 2.79V15.21C0.19594 15.4962 0.248875 15.7803 0.355644 16.0458C0.462414 16.3114 0.620888 16.553 0.82186 16.7568C1.02283 16.9605 1.26229 17.1223 1.52633 17.2328C1.79037 17.3432 2.07372 17.4 2.35992 17.4H19.6399C20.2128 17.4 20.7622 17.1724 21.1673 16.7674C21.5723 16.3623 21.7999 15.8129 21.7999 15.24V2.79C21.7999 2.21714 21.5723 1.66773 21.1673 1.26265C20.7622 0.857575 20.2128 0.630005 19.6399 0.630005ZM8.59992 1.71H13.4599V6.03H8.59992V1.71ZM20.7199 15.21C20.7183 15.496 20.604 15.7697 20.4019 15.9719C20.1997 16.1741 19.9259 16.2884 19.6399 16.29H2.35992C2.07397 16.2884 1.80018 16.1741 1.59798 15.9719C1.39578 15.7697 1.28149 15.496 1.27992 15.21V2.79C1.28149 2.50406 1.39578 2.23027 1.59798 2.02807C1.80018 1.82587 2.07397 1.71158 2.35992 1.71H7.48992V6.60001C7.48992 6.74322 7.54681 6.88057 7.64808 6.98184C7.74935 7.08311 7.8867 7.14 8.02992 7.14H13.9999C14.0708 7.14 14.141 7.12604 14.2066 7.0989C14.2721 7.07176 14.3316 7.03199 14.3818 6.98184C14.4319 6.9317 14.4717 6.87217 14.4988 6.80665C14.5259 6.74114 14.5399 6.67092 14.5399 6.60001V1.71H19.6399C19.9259 1.71158 20.1997 1.82587 20.4019 2.02807C20.604 2.23027 20.7183 2.50406 20.7199 2.79V15.21Z" fill="#0046FF"/>
</svg>
