<svg width="24" height="24" viewBox="0 0 24 24" fill="none" xmlns="http://www.w3.org/2000/svg">
<path d="M7.5 4H5V1.5C5 1.36739 4.94732 1.24021 4.85355 1.14645C4.75979 1.05268 4.63261 1 4.5 1C4.36739 1 4.24021 1.05268 4.14645 1.14645C4.05268 1.24021 4 1.36739 4 1.5V4H1.5C1.36739 4 1.24021 4.05268 1.14645 4.14645C1.05268 4.24021 1 4.36739 1 4.5C1 4.63261 1.05268 4.75979 1.14645 4.85355C1.24021 4.94732 1.36739 5 1.5 5H4V7.5C4 7.63261 4.05268 7.75979 4.14645 7.85355C4.24021 7.94732 4.36739 8 4.5 8C4.63261 8 4.75979 7.94732 4.85355 7.85355C4.94732 7.75979 5 7.63261 5 7.5V5H7.5C7.63261 5 7.75979 4.94732 7.85355 4.85355C7.94732 4.75979 8 4.63261 8 4.5C8 4.36739 7.94732 4.24021 7.85355 4.14645C7.75979 4.05268 7.63261 4 7.5 4Z" fill="#0046FF"/>
<path d="M22.708 9.99997L15.151 2.44397C14.9635 2.2565 14.7092 2.15118 14.444 2.15118C14.1789 2.15118 13.9246 2.2565 13.737 2.44397L11.437 4.74397C11.3364 4.8467 11.2595 4.9702 11.2116 5.1058C11.1638 5.24141 11.1462 5.38584 11.16 5.52897L6.21002 7.81597C6.06132 7.88377 5.92949 7.98368 5.82401 8.10853C5.71854 8.23337 5.64204 8.38003 5.60002 8.53797L2.18502 21.728C2.14483 21.8981 2.14677 22.0755 2.19069 22.2447C2.2346 22.4139 2.31916 22.5699 2.43702 22.699C2.56366 22.8277 2.7224 22.9202 2.89681 22.967C3.07123 23.0138 3.25497 23.0131 3.42902 22.965L16.605 19.553C16.7643 19.5121 16.9125 19.4363 17.0388 19.3309C17.1651 19.2256 17.2663 19.0934 17.335 18.944L19.62 13.988C19.648 13.988 19.675 14.004 19.703 14.004C19.9682 14.0039 20.2225 13.8985 20.41 13.711L22.71 11.411C22.8963 11.2233 23.0007 10.9695 23.0003 10.7051C22.9999 10.4406 22.8948 10.1871 22.708 9.99997ZM16.355 18.585L4.12902 21.729L10 15.859C10.2938 15.9951 10.6215 16.0401 10.9411 15.9882C11.2607 15.9363 11.5574 15.79 11.793 15.568C12.0861 15.275 12.2508 14.8777 12.2509 14.4633C12.251 14.049 12.0865 13.6515 11.7935 13.3585C11.5006 13.0654 11.1032 12.9007 10.6889 12.9006C10.2745 12.9005 9.87709 13.065 9.58402 13.358C9.36154 13.5933 9.21485 13.8901 9.16297 14.2097C9.11108 14.5294 9.15639 14.8573 9.29302 15.151L3.39302 21.051L6.56802 8.78997C6.57257 8.77505 6.58055 8.7614 6.59131 8.75012C6.60208 8.73883 6.61534 8.73022 6.63002 8.72497L11.684 6.39997L18.744 13.5L16.355 18.585ZM10.291 14.065C10.37 13.9868 10.4703 13.9337 10.5794 13.9124C10.6884 13.8911 10.8013 13.9026 10.9039 13.9453C11.0065 13.9881 11.0941 14.0603 11.1557 14.1527C11.2173 14.2452 11.2502 14.3538 11.2502 14.465C11.2502 14.5761 11.2173 14.6847 11.1557 14.7772C11.0941 14.8697 11.0065 14.9418 10.9039 14.9846C10.8013 15.0274 10.6884 15.0388 10.5794 15.0175C10.4703 14.9963 10.37 14.9432 10.291 14.865C10.185 14.7588 10.1255 14.615 10.1255 14.465C10.1255 14.315 10.185 14.1711 10.291 14.065ZM19.7 13L12.146 5.44897L14.446 3.14897L22 10.707L19.7 13Z" fill="#0046FF"/>
</svg>
